<?xml version="1.0" encoding="utf-8"?>
<!-- Generator: Adobe Illustrator 16.0.0, SVG Export Plug-In . SVG Version: 6.00 Build 0)  -->
<!DOCTYPE svg PUBLIC "-//W3C//DTD SVG 1.1//EN" "http://www.w3.org/Graphics/SVG/1.1/DTD/svg11.dtd">
<svg version="1.1" id="Layer_1" xmlns="http://www.w3.org/2000/svg" xmlns:xlink="http://www.w3.org/1999/xlink" x="0px" y="0px"
	 width="100px" height="100px" viewBox="0 0 100 100" enable-background="new 0 0 100 100" xml:space="preserve">
<path d="M77.375,5.294h-54.75c-9.51,0-17.247,7.735-17.247,17.246v18.217v36.534c0,9.512,7.737,17.246,17.247,17.246h54.752
	c9.51,0,17.244-7.734,17.244-17.246V40.756V22.539C94.619,13.027,86.885,5.294,77.375,5.294z M37.262,40.756
	c2.86-3.956,7.496-6.548,12.738-6.548c5.243,0,9.879,2.593,12.734,6.548c1.86,2.581,2.976,5.738,2.976,9.159
	c0,8.661-7.054,15.706-15.711,15.706c-8.661,0-15.707-7.045-15.707-15.706C34.292,46.495,35.403,43.336,37.262,40.756z
	 M85.926,77.289c0,4.719-3.836,8.551-8.551,8.551h-54.75c-4.716,0-8.552-3.832-8.552-8.551V40.756h13.321
	c-1.151,2.83-1.797,5.921-1.797,9.159c0,13.45,10.945,24.403,24.402,24.403c13.457,0,24.402-10.953,24.402-24.403
	c0-3.238-0.65-6.329-1.801-9.159h13.324v36.533H85.926z M84.188,28.339c0,1.262-1.023,2.286-2.285,2.286h-10.43
	c-1.262,0-2.285-1.024-2.285-2.286V17.911c0-1.263,1.023-2.286,2.285-2.286h10.43c1.262,0,2.285,1.023,2.285,2.286V28.339z"/>
</svg>
