<?xml version="1.0" encoding="utf-8"?>
<!-- Generator: Adobe Illustrator 16.0.0, SVG Export Plug-In . SVG Version: 6.00 Build 0)  -->
<!DOCTYPE svg PUBLIC "-//W3C//DTD SVG 1.1//EN" "http://www.w3.org/Graphics/SVG/1.1/DTD/svg11.dtd">
<svg version="1.1" id="Layer_1" xmlns="http://www.w3.org/2000/svg" xmlns:xlink="http://www.w3.org/1999/xlink" x="0px" y="0px"
	 width="100px" height="100px" viewBox="0 0 100 100" enable-background="new 0 0 100 100" xml:space="preserve">
<path d="M52.175,3.608c-25.32,0-38.088,18.153-38.088,33.294c0,9.166,3.469,17.32,10.912,20.356c1.221,0.502,2.314,0.018,2.67-1.333
	c0.246-0.931,0.828-3.292,1.088-4.276c0.355-1.336,0.217-1.803-0.768-2.971c-2.146-2.53-3.52-5.806-3.52-10.451
	c0-13.467,10.078-25.526,26.24-25.526c14.312,0,22.176,8.746,22.176,20.422c0,15.368-6.802,28.337-16.896,28.337
	c-5.573,0-9.746-4.606-8.412-10.265c1.603-6.752,4.705-14.037,4.705-18.915c0-4.361-2.344-8-7.188-8
	c-5.698,0-10.278,5.897-10.278,13.795c0,5.03,1.7,8.434,1.7,8.434s-5.834,24.717-6.857,29.043
	c-2.035,8.621-0.306,19.186-0.159,20.25c0.085,0.635,0.899,0.785,1.269,0.309c0.523-0.688,7.315-9.066,9.62-17.439
	c0.655-2.371,3.75-14.648,3.75-14.648c1.853,3.534,7.263,6.639,13.019,6.639c17.131,0,28.755-15.617,28.755-36.52
	C85.914,18.331,72.523,3.608,52.175,3.608z"/>
</svg>
