<?xml version="1.0" encoding="utf-8"?>
<!-- Generator: Adobe Illustrator 16.0.0, SVG Export Plug-In . SVG Version: 6.00 Build 0)  -->
<!DOCTYPE svg PUBLIC "-//W3C//DTD SVG 1.1//EN" "http://www.w3.org/Graphics/SVG/1.1/DTD/svg11.dtd">
<svg version="1.1" id="Icons" xmlns="http://www.w3.org/2000/svg" xmlns:xlink="http://www.w3.org/1999/xlink" x="0px" y="0px"
	 width="100px" height="100px" viewBox="0 0 100 100" enable-background="new 0 0 100 100" xml:space="preserve">
<path d="M95.039,72.395V32.167h-0.183H68.124V20.107c0.037-1.043-0.02-5.732-3.641-9.587C61.593,7.443,57.365,5.841,51.9,5.754
	l-0.241,0V5.75h-2.503c-0.003,0-0.005,0-0.008,0h-0.211v0.008c-5.573,0.042-9.89,1.638-12.825,4.762
	c-3.622,3.856-3.678,8.545-3.641,9.588v12.059H5.313H5.13v40.228c0,0-0.927,21.69,21.504,22.246
	c10.112,0.251,17.917,0.275,23.45,0.228c5.532,0.048,13.338,0.023,23.45-0.228C95.967,94.085,95.039,72.395,95.039,72.395z
	 M40.253,19.839c-0.001-0.023-0.053-2.351,1.591-4.048c1.451-1.496,3.911-2.255,7.312-2.255h2.284c3.401,0,5.86,0.759,7.312,2.255
	c1.633,1.685,1.594,3.991,1.595,3.991l-0.005,12.384H40.257V20.025l0.003-0.065L40.253,19.839z"/>
</svg>
