<?xml version="1.0" encoding="utf-8"?>
<!-- Generator: Adobe Illustrator 16.0.0, SVG Export Plug-In . SVG Version: 6.00 Build 0)  -->
<!DOCTYPE svg PUBLIC "-//W3C//DTD SVG 1.1//EN" "http://www.w3.org/Graphics/SVG/1.1/DTD/svg11.dtd">
<svg version="1.1" id="Layer_7" xmlns="http://www.w3.org/2000/svg" xmlns:xlink="http://www.w3.org/1999/xlink" x="0px" y="0px"
	 width="122.25px" height="100px" viewBox="0 0 122.25 100" enable-background="new 0 0 122.25 100" xml:space="preserve">
<path d="M101.848,24.984V24.98c0,0-0.023-0.03-0.064-0.083c-0.019-0.021-0.032-0.045-0.051-0.068l-0.001,0.002
	c-0.42-0.529-1.899-2.354-2.981-3.156l0,0c-4.225-3.842-11.512-3.323-12.841-3.024c-1.328,0.299-3.488,1.59-2.923,4.698
	c0.563,3.107,3.353,2.77,5.931,2.566c2.25-0.178,4.481,1.366,5.013,1.76c0.008,0.006,0.729,0.644,1.198,1.359l-0.005,0.003
	c0,0,0.064,0.093,0.163,0.259l0.001,0.002l0,0c0.443,0.736,1.615,2.918,1.289,5c-0.399,2.554-0.952,5.309,2.104,6.108
	c3.057,0.802,4.508-1.251,4.908-2.554C103.981,36.562,105.208,29.499,101.848,24.984z"/>
<path d="M113.243,14.206c0,0-1.858-2.561-2.97-3.531c-0.115-0.121-0.379-0.323-0.379-0.323C96.339-1.19,82.525,3.197,81.368,3.37
	c-1.265,0.188-3.124,1.32-3.002,4.993c0.124,3.673,4.491,3.862,4.491,3.862c9.777-2.874,17.177,1.507,20.953,4.658
	c0,0,11.026,10.021,5.852,24.207c0,0-0.087,4.373,3.57,4.729c3.658,0.355,4.905-1.428,5.174-2.676
	C118.652,41.997,123.918,28.479,113.243,14.206z"/>
<path d="M94.798,49.789c0,0-5.577-1.964-5.956-2.588c-0.38-0.625-0.136-2.028,0.49-3.278c0.624-1.25,1.047-4.953,0.914-6.379
	c-0.135-1.428-0.247-4.684-5.221-7.115c-4.973-2.432-15.654,0.201-17.017,0.781s-6.847,2.367-6.847,2.367s-1.971,1.07-1.29-2.14
	s3.793-15.955-7.88-15.761C40.316,15.871,25.92,27.06,20.861,32.021c-5.06,4.961-21.986,21.889-17.9,40.471
	c0,0,1.85,5.448,4.961,8.658c3.113,3.21,7.395,8.073,17.221,11.673c9.825,3.6,18.969,4.768,29.186,4.768
	c10.215,0,25.002-3.211,35.51-10.797c10.505-7.59,14.883-15.472,15.271-20.918C105.498,60.427,103.262,53.257,94.798,49.789z
	 M52.012,90.54c-19.437,2.713-36.634-5.41-38.41-18.141c-1.774-12.729,12.543-25.248,31.979-27.958
	c19.437-2.711,36.634,5.412,38.409,18.14C85.768,75.312,71.447,87.83,52.012,90.54z"/>
<path d="M65.445,65.479c-1.82-8.684-11.514-13.999-21.647-11.874C33.663,55.73,26.923,64.491,28.743,73.173
	c1.819,8.685,11.512,14,21.647,11.877C60.525,82.925,67.266,74.162,65.445,65.479z M40.957,73.949c-3.548,0-6.423-2.876-6.423-6.424
	c0-3.546,2.875-6.422,6.423-6.422c3.547,0,6.423,2.876,6.423,6.422C47.379,71.073,44.503,73.949,40.957,73.949z M56.077,74.485
	c-1.698,0-3.078-1.379-3.078-3.079c0-1.698,1.38-3.077,3.078-3.077c1.7,0,3.077,1.379,3.077,3.077
	C59.154,73.106,57.777,74.485,56.077,74.485z"/>
</svg>
