<?xml version="1.0" encoding="utf-8"?>
<!-- Generator: Adobe Illustrator 16.0.0, SVG Export Plug-In . SVG Version: 6.00 Build 0)  -->
<!DOCTYPE svg PUBLIC "-//W3C//DTD SVG 1.1//EN" "http://www.w3.org/Graphics/SVG/1.1/DTD/svg11.dtd">
<svg version="1.1" id="Capa_1" xmlns="http://www.w3.org/2000/svg" xmlns:xlink="http://www.w3.org/1999/xlink" x="0px" y="0px"
	 width="174px" height="100px" viewBox="0 0 174 100" enable-background="new 0 0 174 100" xml:space="preserve">
<g>
	<path d="M170.111,88.806c-0.197-0.434-0.39-0.801-0.564-1.084c-2.891-5.209-8.416-11.6-16.572-19.182l-0.173-0.173l-0.086-0.083
		l-0.089-0.091h-0.091c-3.698-3.529-6.044-5.899-7.027-7.115c-1.793-2.316-2.197-4.654-1.219-7.032
		c0.696-1.789,3.302-5.58,7.81-11.365c2.374-3.065,4.252-5.522,5.643-7.375c10.005-13.306,14.346-21.807,13.017-25.511l-0.519-0.862
		c-0.344-0.524-1.246-1.001-2.689-1.433c-2.089-0.329-4.124-0.292-5.554-0.217l-24.989,0.174c-1.169-0.044-1.322-0.038-1.735,0.043
		c-0.752,0.174-1.127,0.261-1.127,0.261l-0.431,0.217l-0.344,0.262c-0.293,0.174-0.61,0.477-0.954,0.911
		c-0.346,0.431-0.636,0.942-0.868,1.519c-2.721,7-5.818,13.509-9.288,19.523c-2.139,3.587-4.104,6.695-5.897,9.325
		c-1.791,2.631-3.299,4.569-4.514,5.814c-1.216,1.245-2.312,2.244-3.299,2.996c-0.984,0.752-1.734,1.073-2.251,0.953
		c-0.524-0.116-1.015-0.231-1.481-0.344c-0.807-0.521-1.461-1.233-1.949-2.125c-0.495-0.898-0.821-2.025-0.998-3.385
		c-0.175-1.36-0.272-2.532-0.303-3.513c-0.029-0.984-0.019-2.373,0.039-4.167c0.061-1.794,0.089-3.006,0.089-3.645
		c0-2.199,0.043-4.584,0.128-7.157c0.09-2.575,0.161-4.616,0.218-6.117c0.059-1.504,0.086-3.095,0.086-4.773
		c0-1.679-0.102-2.994-0.304-3.948c-0.195-0.954-0.506-1.88-0.908-2.777c-0.406-0.894-0.998-1.588-1.78-2.082
		c-0.779-0.493-1.75-0.881-2.907-1.173c-3.065-0.695-6.968-1.069-11.715-1.13c-10.76-0.113-15.751,0.578-18.818,2.086
		c-1.216,0.635-2.316,1.504-3.3,2.6c-1.042,1.274-1.185,1.969-0.433,2.084c3.469,0.521,4.008,1.765,5.455,3.732l0.521,1.04
		c0.405,0.752,0.809,2.084,1.216,3.993c0.405,1.909,0.666,4.021,0.781,6.332c0.288,4.221,0.288,7.838,0,10.846
		c-0.289,3.005-0.562,5.35-0.823,7.027c-0.261,1.678-0.651,3.039-1.174,4.078c-0.521,1.039-0.87,1.677-1.041,1.909
		c-0.106,0.128-0.318,0.376-0.434,0.431c-0.751,0.289-1.532,0.435-2.345,0.435c-0.809,0-1.79-0.406-2.949-1.216
		c-1.156-0.812-2.355-1.924-3.599-3.342c-1.246-1.416-2.647-3.396-4.212-5.944c-1.559-2.545-3.181-5.551-4.859-9.022l-1.39-2.517
		c-0.869-1.621-2.053-3.979-3.556-7.071c-1.502-3.095-2.834-6.088-3.991-8.982c-0.463-1.215-1.159-2.141-2.083-2.775l-0.434-0.263
		c-0.289-0.231-0.752-0.477-1.391-0.738c-0.803-0.381-1.473-0.563-1.994-0.566L9.892,7.278c-2.427,0-4.077,0.553-4.944,1.649
		L4.604,9.448C4.429,9.738,4.339,10.2,4.339,10.839c0,0.635,0.176,1.416,0.524,2.339c3.467,8.158,7.244,16.025,11.322,23.605
		c4.077,7.575,7.622,13.681,10.628,18.308c3.01,4.626,6.073,8.996,9.197,13.103c3.125,4.105,5.192,6.736,6.201,7.895
		c1.015,1.158,1.811,2.024,2.389,2.602l2.17,2.086c1.387,1.39,3.425,3.051,6.117,4.986c2.691,1.937,5.666,3.85,8.935,5.729
		c3.269,1.882,7.071,3.413,11.409,4.6c4.338,1.186,7.803,1.563,12.667,1.433h9.98c3.002-0.197,3.554-0.811,4.599-1.91l0.346-0.435
		c0.231-0.343,0.449-0.879,0.646-1.601c0.204-0.722,0.306-1.522,0.306-2.389c-0.057-2.487,0.131-4.729,0.567-6.726
		c0.428-1.992,0.923-3.5,1.476-4.513c0.552-1.014,1.174-1.867,1.864-2.559c0.694-0.691,1.187-1.112,1.479-1.258
		c0.289-0.145,0.518-0.243,0.695-0.302c1.389-0.463,3.02-0.015,4.904,1.346c1.879,1.358,3.642,3.038,5.29,5.031
		c1.648,1.997,3.628,4.235,5.941,6.728c2.316,2.484,4.341,4.334,6.073,5.553l1.736,1.039c1.158,0.697,2.662,1.331,4.514,1.912
		c1.406,0.494,2.219,0.475,4.86,0.432l22.211-0.346c2.194,0,3.906-0.363,5.118-1.087c1.216-0.724,1.938-1.521,2.169-2.385
		c0.231-0.87,0.246-1.854,0.041-2.951C170.517,90.007,170.313,89.24,170.111,88.806z"/>
</g>
</svg>
